<svg width="16" height="16" viewBox="0 0 16 16" fill="none" xmlns="http://www.w3.org/2000/svg">
    <path d="M2 4.49821C2 4.2103 2.0816 3.92905 2.23419 3.69097L2.32436 3.55029C2.67967 2.99592 3.38253 2.83496 3.92174 3.18448L8.88772 6.98246C9.23549 7.24844 9.44156 7.67555 9.44156 8.13039C9.44156 8.59426 9.22727 9.02868 8.86803 9.29309L7.19137 10.5272C6.82659 10.7956 6.32601 10.7021 6.06967 10.3175C5.80803 9.92494 5.90129 9.38096 6.27647 9.11131L7.37796 8.31963C7.49151 8.23802 7.49304 8.06112 7.38092 7.97731L3.93605 5.40234C3.80614 5.30523 3.62701 5.40381 3.62701 5.57241V11.6476C3.62701 11.9272 3.49935 12.1895 3.28446 12.3514L2.50781 12.9364C2.29485 13.0968 2 12.9353 2 12.6582V4.49821Z"
          fill="#6C707E"/>
    <path d="M7.59622 4.56687C7.23367 4.28984 7.14936 3.75456 7.40732 3.36753C7.66824 2.97605 8.17979 2.88502 8.54682 3.16476L13.4123 6.87302C13.7812 7.15422 14 7.6067 14 8.08868C14 8.55443 13.7956 8.99365 13.4472 9.2769L9.31757 12.6333C8.95473 12.9282 8.43426 12.8489 8.16434 12.4575C7.90345 12.0793 7.97419 11.5493 8.32382 11.2628L11.9928 8.25581C12.0966 8.17075 12.094 8.00367 11.9876 7.92235L7.59622 4.56687Z"
          fill="#6C707E"/>
</svg>
